<?xml version="1.0" encoding="UTF-8" standalone="no"?>
<!-- Created with Inkscape (http://www.inkscape.org/) -->

<svg
   width="43.180317mm"
   height="15.448809mm"
   viewBox="0 0 43.180317 15.448809"
   version="1.1"
   id="svg1049"
   inkscape:version="1.1 (c68e22c387, 2021-05-23)"
   sodipodi:docname="SHB logo.svg"
   xmlns:inkscape="http://www.inkscape.org/namespaces/inkscape"
   xmlns:sodipodi="http://sodipodi.sourceforge.net/DTD/sodipodi-0.dtd"
   xmlns="http://www.w3.org/2000/svg"
   xmlns:svg="http://www.w3.org/2000/svg">
  <sodipodi:namedview
     id="namedview1051"
     pagecolor="#ffffff"
     bordercolor="#666666"
     borderopacity="1.0"
     inkscape:pageshadow="2"
     inkscape:pageopacity="0.0"
     inkscape:pagecheckerboard="0"
     inkscape:document-units="mm"
     showgrid="false"
     inkscape:zoom="0.72871773"
     inkscape:cx="89.883911"
     inkscape:cy="74.788903"
     inkscape:window-width="1920"
     inkscape:window-height="1002"
     inkscape:window-x="-8"
     inkscape:window-y="-8"
     inkscape:window-maximized="1"
     inkscape:current-layer="layer1" />
  <defs
     id="defs1046">
    <clipPath
       clipPathUnits="userSpaceOnUse"
       id="clipPath934">
      <path
         d="M 0,0 H 595.276 V 841.89 H 0 Z"
         id="path932" />
    </clipPath>
  </defs>
  <g
     inkscape:label="Layer 1"
     inkscape:groupmode="layer"
     id="layer1"
     transform="translate(-81.161676,-128.79393)">
    <g
       id="g928"
       transform="matrix(0.35277777,0,0,-0.35277777,50.061846,394.49274)">
      <g
         id="g930"
         clip-path="url(#clipPath934)">
        <g
           id="g936"
           transform="translate(105.32,753.162)">
          <path
             d="m 0,0 h 0.409 c -3.851,-3.161 -10.518,-7.215 -1.997,-13.15 7.63,-5.621 7.654,-9.603 -3.058,-17.251 H -6.403 C 3.539,-23.79 4.309,-19.64 -3.033,-13.85 -9.797,-8.614 -7.197,-5.091 0,0 m -17.163,0 h 14.66 c -4.189,-3.113 -9.556,-6.997 -2.552,-12.836 7.727,-6.442 7.39,-9.965 -3.658,-17.565 h -8.45 z M 2.72,0 h 0.41 c -4.069,-3.113 -9.316,-7.263 -1.926,-12.595 8.761,-6.514 9.003,-10.013 -1.685,-17.806 h -1.757 c 9.171,6.659 10.23,10.302 2.599,16.479 C -7.005,-8.638 -4.477,-5.067 2.72,0 M 5.224,0 H 16.296 V -30.401 H 2.022 c 8.425,6.707 9.942,10.616 1.806,16.31 -7.679,5.453 -5.272,9 1.396,14.091"
             style="fill:#ef7d00;fill-opacity:1;fill-rule:nonzero;stroke:none"
             id="path938" />
        </g>
        <g
           id="g940"
           transform="translate(195.6094,737.696)">
          <path
             d="m 0,0 v -9.868 c 0,-1.158 0.025,-1.882 0.096,-2.196 0.169,-0.941 0.819,-1.423 1.95,-1.423 1.926,0 3.323,0.41 4.213,1.206 0.914,0.869 1.396,2.292 1.396,4.246 0,2.462 -0.265,4.271 -0.771,5.429 C 6.138,-0.869 4.743,0 2.697,0 Z M 0,11.581 V 1.544 h 1.854 c 3.057,0 4.597,1.544 4.597,4.657 v 3.498 c 0,1.52 -0.36,2.606 -1.082,3.209 -0.651,0.531 -1.734,0.796 -3.274,0.796 -0.771,0 -1.324,-0.144 -1.637,-0.458 C 0.169,12.932 0,12.378 0,11.581 m 4.743,-26.323 h -15.045 v 0.917 c 2.335,0 3.514,1.23 3.514,3.716 v 20.46 c 0,2.485 -1.179,3.715 -3.514,3.715 v 0.917 H 0 c 2.793,0 4.622,-0.048 5.465,-0.169 L 6.115,14.79 H 6.524 C 6.62,14.766 6.716,14.742 6.837,14.718 l 0.722,-0.145 c 0.313,-0.048 0.625,-0.145 0.938,-0.289 1.421,-0.435 2.6,-1.183 3.491,-2.245 0.962,-1.109 1.42,-2.388 1.42,-3.884 0,-2.509 -1.18,-4.439 -3.587,-5.766 C 9.292,2.099 8.401,1.761 7.149,1.399 V 1.327 c 1.71,-0.483 3.347,-1.231 4.863,-2.22 0.89,-0.603 1.589,-1.399 2.07,-2.389 0.434,-0.844 0.625,-1.833 0.625,-2.943 0,-2.509 -0.77,-4.391 -2.359,-5.597 -1.371,-1.062 -2.695,-1.858 -3.995,-2.341 -1.011,-0.386 -2.215,-0.579 -3.61,-0.579 m -27.634,14.235 h -10.23 v -9.602 c 0,-2.486 1.156,-3.716 3.49,-3.716 v -0.917 h -13.792 v 0.917 c 2.335,0 3.514,1.23 3.514,3.716 v 20.46 c 0,2.485 -1.179,3.715 -3.514,3.715 v 0.917 h 13.792 v -0.917 c -2.334,0 -3.49,-1.23 -3.49,-3.715 V 1.616 h 10.23 v 8.735 c 0,2.485 -1.155,3.715 -3.49,3.715 v 0.917 h 13.792 v -0.917 c -2.335,0 -3.49,-1.23 -3.49,-3.715 v -20.46 c 0,-2.486 1.155,-3.716 3.49,-3.716 v -0.917 h -13.792 v 0.917 c 2.335,0 3.49,1.23 3.49,3.716 z M -47.828,15.417 V 5.815 h -0.843 l -1.348,3.136 c -0.602,1.352 -1.444,2.485 -2.551,3.427 -1.252,1.085 -2.745,1.616 -4.502,1.616 -1.637,0 -2.888,-0.579 -3.707,-1.761 -0.553,-0.797 -0.842,-1.641 -0.842,-2.534 0,-1.134 0.337,-2.147 1.011,-2.992 0.842,-1.11 2.383,-2.075 4.549,-2.871 3.202,-1.158 5.585,-2.605 7.174,-4.367 1.516,-1.665 2.262,-3.571 2.262,-5.742 0,-3.354 -1.275,-5.863 -3.827,-7.504 -1.782,-1.134 -4.092,-1.713 -6.908,-1.713 -0.747,0 -1.685,0.145 -2.817,0.458 -2.479,0.7 -3.947,1.038 -4.429,1.038 -0.192,0 -0.36,-0.121 -0.505,-0.386 l -0.144,-0.386 -0.169,-0.724 h -1.011 v 10.616 h 0.987 l 0.891,-3.088 c 0.24,-0.796 0.746,-1.713 1.54,-2.727 0.746,-0.941 1.492,-1.689 2.238,-2.195 1.132,-0.821 2.312,-1.231 3.515,-1.231 3.899,0 5.849,1.593 5.849,4.777 0,1.593 -1.059,3.065 -3.178,4.488 -0.625,0.41 -2.358,1.279 -5.175,2.63 -2.214,1.062 -3.875,2.485 -4.934,4.198 -0.915,1.472 -1.348,2.992 -1.348,4.56 0,2.751 0.915,4.971 2.744,6.66 1.589,1.472 3.418,2.219 5.464,2.219 1.372,0 2.672,-0.168 3.876,-0.506 l 3.875,-1.11 c 0.265,0 0.529,0.217 0.842,0.7 l 0.458,0.916 z"
             style="fill:#312783;fill-opacity:1;fill-rule:nonzero;stroke:none"
             id="path942" />
        </g>
        <g
           id="g944"
           transform="translate(88.9519,711.1071)">
          <path
             d="M 0,0 V 2.702 H -0.65 V 3.233 H 0 V 5.936 H 2.046 C 2.503,5.936 2.865,5.911 3.105,5.863 3.443,5.766 3.731,5.622 3.972,5.429 4.285,5.163 4.525,4.826 4.67,4.415 4.814,4.005 4.911,3.523 4.911,2.992 4.911,2.389 4.814,1.882 4.622,1.448 4.429,1.014 4.189,0.7 3.924,0.483 3.659,0.29 3.346,0.145 3.009,0.072 2.817,0.024 2.528,0 2.142,0 Z m 0.795,0.7 h 1.251 c 0.409,0 0.698,0.048 0.939,0.12 0.216,0.073 0.385,0.169 0.505,0.29 0.193,0.193 0.337,0.434 0.458,0.748 0.096,0.314 0.144,0.7 0.144,1.158 0,0.459 -0.048,0.821 -0.144,1.11 C 3.827,4.391 3.707,4.633 3.539,4.802 3.37,4.97 3.177,5.067 2.985,5.14 2.768,5.212 2.455,5.236 2.046,5.236 H 0.795 V 3.233 H 2.432 V 2.702 H 0.795 Z m 4.814,1.447 c 0,0.797 0.24,1.4 0.673,1.786 0.362,0.314 0.819,0.458 1.348,0.458 0.578,0 1.084,-0.193 1.445,-0.579 C 9.46,3.426 9.629,2.895 9.629,2.22 9.629,1.665 9.556,1.231 9.387,0.917 9.219,0.579 8.978,0.338 8.665,0.169 8.352,0 8.016,-0.096 7.63,-0.096 7.028,-0.096 6.548,0.097 6.162,0.483 5.802,0.869 5.609,1.424 5.609,2.147 m 0.746,0 c 0,-0.555 0.12,-0.965 0.361,-1.23 0.241,-0.265 0.554,-0.41 0.914,-0.41 0.362,0 0.651,0.145 0.891,0.41 0.241,0.265 0.361,0.7 0.361,1.255 0,0.53 -0.12,0.941 -0.361,1.206 -0.24,0.29 -0.529,0.41 -0.891,0.41 -0.36,0 -0.673,-0.12 -0.914,-0.41 C 6.475,3.113 6.355,2.702 6.355,2.147 M 7.63,5.525 7.173,4.826 H 6.355 L 7.221,5.96 H 7.992 L 8.907,4.826 H 8.088 Z M 7.775,7.407 H 8.738 L 7.799,6.273 H 7.221 Z m 2.72,-1.471 h 0.722 V 5.091 h -0.722 z m 0,-1.641 h 0.722 V 0 H 10.495 Z M 16.224,0.652 16.32,0 c -0.192,-0.024 -0.385,-0.048 -0.554,-0.048 -0.264,0 -0.457,0.024 -0.601,0.12 C 15.02,0.145 14.9,0.266 14.852,0.41 14.78,0.531 14.756,0.82 14.756,1.255 V 3.74 h -0.53 v 0.555 h 0.53 v 1.061 l 0.722,0.459 v -1.52 h 0.746 V 3.74 H 15.478 V 1.231 c 0,-0.217 0.024,-0.362 0.048,-0.411 0.024,-0.048 0.072,-0.096 0.12,-0.145 0.049,-0.023 0.145,-0.048 0.241,-0.048 0.097,0 0.193,0 0.337,0.025 m 3.49,-0.121 C 19.449,0.314 19.185,0.145 18.944,0.049 18.703,-0.048 18.438,-0.096 18.15,-0.096 c -0.482,0 -0.843,0.12 -1.084,0.337 -0.264,0.242 -0.385,0.531 -0.385,0.893 0,0.217 0.049,0.41 0.145,0.579 0.096,0.169 0.216,0.314 0.36,0.41 0.169,0.121 0.338,0.194 0.53,0.242 0.145,0.048 0.361,0.072 0.65,0.12 0.578,0.073 1.012,0.145 1.3,0.242 V 2.92 c 0,0.289 -0.072,0.506 -0.192,0.627 -0.193,0.169 -0.482,0.241 -0.843,0.241 -0.337,0 -0.602,-0.048 -0.746,-0.169 -0.169,-0.12 -0.289,-0.337 -0.361,-0.651 l -0.722,0.096 c 0.072,0.314 0.168,0.555 0.313,0.748 0.168,0.193 0.361,0.338 0.65,0.435 0.289,0.096 0.601,0.144 0.986,0.144 0.361,0 0.65,-0.024 0.891,-0.12 0.216,-0.097 0.385,-0.193 0.505,-0.338 0.097,-0.121 0.169,-0.29 0.217,-0.483 0.024,-0.12 0.024,-0.361 0.024,-0.675 V 1.81 c 0,-0.676 0.025,-1.11 0.048,-1.279 C 20.484,0.338 20.533,0.169 20.629,0 h -0.771 c -0.071,0.145 -0.12,0.338 -0.144,0.531 M 19.666,2.172 C 19.401,2.051 19.016,1.955 18.487,1.882 18.174,1.834 17.957,1.786 17.837,1.737 17.716,1.689 17.62,1.617 17.548,1.496 17.499,1.4 17.452,1.279 17.452,1.158 c 0,-0.193 0.072,-0.362 0.216,-0.483 0.144,-0.144 0.361,-0.192 0.65,-0.192 0.289,0 0.529,0.048 0.747,0.169 0.216,0.12 0.384,0.289 0.48,0.506 0.073,0.169 0.121,0.41 0.121,0.724 z m -1.42,2.654 0.553,1.134 h 0.939 L 18.847,4.826 Z m 6.09,-3.258 0.698,-0.096 C 24.962,0.989 24.769,0.604 24.432,0.314 c -0.313,-0.265 -0.698,-0.41 -1.18,-0.41 -0.577,0 -1.058,0.193 -1.42,0.579 -0.337,0.386 -0.529,0.941 -0.529,1.664 0,0.459 0.072,0.869 0.241,1.207 0.144,0.338 0.384,0.603 0.697,0.796 0.313,0.169 0.651,0.241 1.011,0.241 0.482,0 0.867,-0.12 1.156,-0.338 0.289,-0.241 0.481,-0.578 0.578,-1.013 L 24.263,2.92 c -0.072,0.289 -0.192,0.506 -0.36,0.651 -0.169,0.145 -0.362,0.241 -0.602,0.241 -0.385,0 -0.674,-0.144 -0.915,-0.41 -0.216,-0.265 -0.337,-0.675 -0.337,-1.255 0,-0.579 0.121,-0.989 0.337,-1.254 0.217,-0.266 0.506,-0.386 0.866,-0.386 0.289,0 0.53,0.097 0.722,0.265 0.169,0.169 0.313,0.435 0.362,0.796 M 29.56,0.652 29.656,0 c -0.193,-0.024 -0.386,-0.048 -0.554,-0.048 -0.265,0 -0.457,0.024 -0.602,0.12 -0.144,0.073 -0.265,0.194 -0.313,0.338 -0.072,0.121 -0.096,0.41 -0.096,0.845 V 3.74 h -0.53 v 0.555 h 0.53 v 1.061 l 0.722,0.459 V 4.295 H 29.56 V 3.74 H 28.813 V 1.231 c 0,-0.217 0.024,-0.362 0.048,-0.411 0.024,-0.048 0.072,-0.096 0.121,-0.145 0.047,-0.023 0.144,-0.048 0.24,-0.048 0.096,0 0.192,0 0.338,0.025 m 0.697,5.284 h 0.747 V 5.091 h -0.747 z m 0,-1.641 h 0.747 V 0 H 30.257 Z M 32.11,0 v 4.295 h 0.651 V 3.692 c 0.313,0.482 0.77,0.699 1.348,0.699 0.264,0 0.505,-0.048 0.722,-0.12 0.216,-0.097 0.385,-0.218 0.481,-0.386 0.121,-0.145 0.192,-0.314 0.241,-0.531 0.024,-0.145 0.024,-0.362 0.024,-0.7 V 0 h -0.722 v 2.63 c 0,0.29 -0.024,0.507 -0.073,0.652 -0.071,0.144 -0.168,0.265 -0.313,0.361 -0.144,0.073 -0.313,0.121 -0.505,0.121 -0.313,0 -0.577,-0.096 -0.794,-0.289 C 32.929,3.282 32.832,2.895 32.832,2.34 V 0 Z M 41.811,1.568 42.51,1.472 C 42.437,0.989 42.244,0.604 41.908,0.314 c -0.313,-0.265 -0.722,-0.41 -1.18,-0.41 -0.577,0 -1.059,0.193 -1.421,0.579 -0.36,0.386 -0.529,0.941 -0.529,1.664 0,0.459 0.073,0.869 0.241,1.207 0.144,0.338 0.385,0.603 0.698,0.796 0.313,0.169 0.65,0.241 1.011,0.241 0.482,0 0.842,-0.12 1.155,-0.338 0.289,-0.241 0.482,-0.578 0.554,-1.013 L 41.739,2.92 c -0.073,0.289 -0.193,0.506 -0.361,0.651 -0.168,0.145 -0.385,0.241 -0.626,0.241 -0.361,0 -0.65,-0.144 -0.89,-0.41 -0.217,-0.265 -0.337,-0.675 -0.337,-1.255 0,-0.579 0.12,-0.989 0.337,-1.254 0.216,-0.266 0.505,-0.386 0.866,-0.386 0.289,0 0.505,0.097 0.698,0.265 0.193,0.169 0.313,0.435 0.385,0.796 m 4.116,-1.037 c -0.265,-0.217 -0.529,-0.386 -0.77,-0.482 -0.241,-0.097 -0.506,-0.145 -0.794,-0.145 -0.482,0 -0.843,0.12 -1.084,0.337 -0.265,0.242 -0.385,0.531 -0.385,0.893 0,0.217 0.049,0.41 0.145,0.579 0.096,0.169 0.217,0.314 0.361,0.41 0.168,0.121 0.336,0.194 0.529,0.242 0.145,0.048 0.362,0.072 0.651,0.12 0.577,0.073 1.01,0.145 1.299,0.242 V 2.92 c 0,0.289 -0.072,0.506 -0.217,0.627 -0.168,0.169 -0.457,0.241 -0.818,0.241 -0.337,0 -0.602,-0.048 -0.746,-0.169 -0.169,-0.12 -0.289,-0.337 -0.362,-0.651 l -0.722,0.096 c 0.073,0.314 0.169,0.555 0.313,0.748 0.145,0.193 0.362,0.338 0.651,0.435 0.289,0.096 0.602,0.144 0.962,0.144 0.386,0 0.675,-0.024 0.915,-0.12 0.217,-0.097 0.385,-0.193 0.506,-0.338 0.096,-0.121 0.168,-0.29 0.216,-0.483 0.024,-0.12 0.024,-0.361 0.024,-0.675 V 1.81 C 46.601,1.134 46.626,0.7 46.65,0.531 46.697,0.338 46.746,0.169 46.842,0 h -0.77 C 46,0.145 45.951,0.338 45.927,0.531 M 45.879,2.172 C 45.615,2.051 45.205,1.955 44.7,1.882 44.387,1.834 44.17,1.786 44.05,1.737 43.929,1.689 43.833,1.617 43.761,1.496 43.689,1.4 43.665,1.279 43.665,1.158 c 0,-0.193 0.071,-0.362 0.216,-0.483 0.144,-0.144 0.361,-0.192 0.65,-0.192 0.289,0 0.529,0.048 0.746,0.169 0.217,0.12 0.385,0.289 0.482,0.506 0.072,0.169 0.12,0.41 0.12,0.724 z m -1.01,3.353 -0.458,-0.699 h -0.819 l 0.867,1.134 h 0.77 l 0.915,-1.134 h -0.818 z m -0.434,-6.008 h 0.842 v -0.82 h -0.842 z m 3.273,-1.181 -0.072,0.699 c 0.145,-0.048 0.289,-0.072 0.409,-0.072 0.169,0 0.289,0.024 0.385,0.072 0.097,0.072 0.169,0.145 0.241,0.241 0.049,0.073 0.121,0.241 0.217,0.531 0.024,0.048 0.048,0.097 0.072,0.193 l -1.637,4.295 h 0.795 L 49.009,1.81 c 0.12,-0.314 0.216,-0.652 0.312,-0.99 0.073,0.338 0.168,0.652 0.289,0.966 l 0.915,2.509 h 0.722 l -1.613,-4.367 c -0.192,-0.483 -0.313,-0.796 -0.409,-0.965 -0.145,-0.242 -0.289,-0.435 -0.458,-0.531 -0.168,-0.121 -0.36,-0.169 -0.601,-0.169 -0.121,0 -0.289,0.024 -0.458,0.073 M 51.439,0 v 0.845 h 0.843 V 0 c 0,-0.313 -0.048,-0.555 -0.169,-0.748 -0.096,-0.169 -0.265,-0.313 -0.505,-0.434 l -0.217,0.314 c 0.169,0.072 0.289,0.168 0.361,0.313 0.073,0.121 0.096,0.314 0.121,0.555 z m 4.285,-0.362 0.698,-0.096 c 0.048,-0.218 0.121,-0.386 0.265,-0.483 0.168,-0.12 0.409,-0.193 0.722,-0.193 0.337,0 0.602,0.073 0.794,0.193 0.169,0.145 0.313,0.338 0.362,0.579 0.047,0.145 0.047,0.459 0.047,0.917 C 58.3,0.193 57.914,0 57.433,0 c -0.578,0 -1.035,0.217 -1.372,0.652 -0.313,0.41 -0.481,0.916 -0.481,1.52 0,0.41 0.072,0.796 0.216,1.134 0.145,0.362 0.361,0.627 0.65,0.82 0.289,0.169 0.602,0.265 0.987,0.265 0.506,0 0.939,-0.193 1.252,-0.603 v 0.507 h 0.673 V 0.579 c 0,-0.651 -0.071,-1.134 -0.191,-1.423 -0.145,-0.265 -0.362,-0.483 -0.651,-0.652 -0.289,-0.168 -0.673,-0.241 -1.083,-0.241 -0.529,0 -0.938,0.121 -1.251,0.338 -0.314,0.241 -0.458,0.579 -0.458,1.037 m 0.602,2.582 c 0,-0.555 0.12,-0.965 0.337,-1.231 0.216,-0.265 0.505,-0.385 0.842,-0.385 0.338,0 0.602,0.12 0.843,0.385 0.217,0.266 0.337,0.676 0.337,1.207 0,0.531 -0.12,0.941 -0.362,1.206 -0.216,0.266 -0.505,0.386 -0.842,0.386 -0.313,0 -0.577,-0.12 -0.818,-0.386 C 56.446,3.137 56.326,2.751 56.326,2.22 m 4.14,3.716 h 0.722 V 5.091 h -0.722 z m 0,-1.641 h 0.722 V 0 h -0.722 z m 4.622,-3.764 c -0.265,-0.217 -0.53,-0.386 -0.77,-0.482 -0.242,-0.097 -0.506,-0.145 -0.795,-0.145 -0.482,0 -0.842,0.12 -1.083,0.337 -0.265,0.242 -0.385,0.531 -0.385,0.893 0,0.217 0.048,0.41 0.144,0.579 0.096,0.169 0.217,0.314 0.362,0.41 0.168,0.121 0.336,0.194 0.529,0.242 0.144,0.048 0.361,0.072 0.65,0.12 0.578,0.073 1.011,0.145 1.3,0.242 V 2.92 c 0,0.289 -0.073,0.506 -0.193,0.627 -0.193,0.169 -0.482,0.241 -0.842,0.241 -0.338,0 -0.602,-0.048 -0.747,-0.169 C 63.09,3.499 62.97,3.282 62.897,2.968 l -0.722,0.096 c 0.072,0.314 0.168,0.555 0.313,0.748 0.144,0.193 0.361,0.338 0.65,0.435 0.289,0.096 0.602,0.144 0.963,0.144 0.385,0 0.674,-0.024 0.914,-0.12 C 65.232,4.174 65.4,4.078 65.521,3.933 65.617,3.812 65.689,3.643 65.737,3.45 65.762,3.33 65.762,3.089 65.762,2.775 V 1.81 C 65.762,1.134 65.786,0.7 65.81,0.531 65.858,0.338 65.906,0.169 66.002,0 h -0.77 C 65.16,0.145 65.111,0.338 65.088,0.531 M 65.04,2.172 C 64.775,2.051 64.365,1.955 63.86,1.882 63.547,1.834 63.33,1.786 63.21,1.737 63.09,1.689 62.994,1.617 62.921,1.496 62.873,1.4 62.825,1.279 62.825,1.158 c 0,-0.193 0.072,-0.362 0.216,-0.483 0.145,-0.144 0.362,-0.192 0.651,-0.192 0.288,0 0.529,0.048 0.746,0.169 0.216,0.12 0.385,0.289 0.482,0.506 0.071,0.169 0.12,0.41 0.12,0.724 z m -1.156,3.16 c 0.169,0 0.265,0.024 0.313,0.024 0.145,0.049 0.217,0.145 0.217,0.242 0,0.048 -0.049,0.12 -0.121,0.145 -0.12,0.072 -0.288,0.096 -0.53,0.096 h -0.385 l -0.048,0.41 c 0.097,0.024 0.289,0.024 0.579,0.024 0.336,0 0.601,-0.048 0.818,-0.169 0.24,-0.12 0.361,-0.265 0.361,-0.458 0,-0.338 -0.241,-0.555 -0.746,-0.603 V 4.826 h -0.458 z m 3.009,0.604 h 0.746 V 5.091 h -0.746 z m 0,-1.641 h 0.746 V 0 h -0.746 z m 4.14,-5.936 v 5.936 h 0.675 V 3.74 c 0.144,0.217 0.312,0.386 0.529,0.507 0.193,0.096 0.433,0.144 0.697,0.144 0.386,0 0.699,-0.096 0.988,-0.265 0.265,-0.193 0.481,-0.458 0.625,-0.82 0.145,-0.338 0.217,-0.7 0.217,-1.11 0,-0.459 -0.072,-0.845 -0.241,-1.207 C 74.379,0.652 74.138,0.362 73.849,0.193 73.536,0 73.223,-0.096 72.887,-0.096 c -0.241,0 -0.457,0.048 -0.65,0.145 -0.193,0.12 -0.338,0.241 -0.482,0.41 v -2.1 z m 0.675,3.764 c 0,-0.555 0.095,-0.965 0.312,-1.23 0.241,-0.266 0.506,-0.386 0.819,-0.386 0.337,0 0.601,0.145 0.842,0.41 0.217,0.265 0.337,0.7 0.337,1.279 0,0.531 -0.12,0.941 -0.337,1.23 C 73.465,3.692 73.2,3.837 72.887,3.837 72.574,3.837 72.285,3.692 72.044,3.402 71.803,3.113 71.708,2.678 71.708,2.123 M 75.631,0 v 5.936 h 0.746 V 3.812 c 0.337,0.386 0.746,0.579 1.275,0.579 0.313,0 0.602,-0.048 0.819,-0.168 0.241,-0.145 0.409,-0.314 0.505,-0.531 0.097,-0.217 0.169,-0.555 0.169,-0.965 V 0 h -0.746 v 2.727 c 0,0.362 -0.072,0.627 -0.241,0.796 -0.144,0.169 -0.361,0.241 -0.65,0.241 -0.216,0 -0.433,-0.048 -0.625,-0.169 C 76.714,3.499 76.57,3.33 76.497,3.137 76.401,2.968 76.377,2.702 76.377,2.365 V 0 Z m 7.414,0.531 C 82.779,0.314 82.515,0.145 82.274,0.049 82.01,-0.048 81.745,-0.096 81.456,-0.096 c -0.457,0 -0.819,0.12 -1.083,0.337 -0.241,0.242 -0.386,0.531 -0.386,0.893 0,0.217 0.048,0.41 0.145,0.579 0.096,0.169 0.217,0.314 0.385,0.41 0.145,0.121 0.337,0.194 0.529,0.242 0.121,0.048 0.338,0.072 0.626,0.12 0.602,0.073 1.036,0.145 1.3,0.242 V 2.92 c 0,0.289 -0.048,0.506 -0.193,0.627 C 82.587,3.716 82.323,3.788 81.961,3.788 81.6,3.788 81.359,3.74 81.191,3.619 81.022,3.499 80.902,3.282 80.83,2.968 l -0.722,0.096 c 0.072,0.314 0.192,0.555 0.337,0.748 0.144,0.193 0.361,0.338 0.626,0.435 0.288,0.096 0.626,0.144 0.986,0.144 0.362,0 0.651,-0.024 0.891,-0.12 C 83.165,4.174 83.334,4.078 83.454,3.933 83.55,3.812 83.647,3.643 83.67,3.45 83.694,3.33 83.718,3.089 83.718,2.775 V 1.81 c 0,-0.676 0,-1.11 0.049,-1.279 C 83.791,0.338 83.863,0.169 83.935,0 h -0.746 c -0.073,0.145 -0.12,0.338 -0.144,0.531 M 82.972,2.172 C 82.708,2.051 82.323,1.955 81.793,1.882 81.504,1.834 81.288,1.786 81.167,1.737 81.022,1.689 80.926,1.617 80.878,1.496 80.806,1.4 80.758,1.279 80.758,1.158 c 0,-0.193 0.096,-0.362 0.241,-0.483 0.144,-0.144 0.36,-0.192 0.625,-0.192 0.289,0 0.53,0.048 0.746,0.169 0.217,0.12 0.386,0.289 0.482,0.506 0.096,0.169 0.12,0.41 0.12,0.724 z m -1.395,2.654 0.529,1.134 h 0.939 L 82.178,4.826 Z M 84.85,-1.641 V 4.295 H 85.5 V 3.74 c 0.168,0.217 0.337,0.386 0.529,0.507 0.193,0.096 0.433,0.144 0.723,0.144 0.36,0 0.698,-0.096 0.962,-0.265 0.289,-0.193 0.506,-0.458 0.626,-0.82 0.145,-0.338 0.216,-0.7 0.216,-1.11 0,-0.459 -0.071,-0.845 -0.216,-1.207 C 88.172,0.652 87.955,0.362 87.642,0.193 87.353,0 87.016,-0.096 86.703,-0.096 c -0.241,0 -0.457,0.048 -0.65,0.145 -0.192,0.12 -0.361,0.241 -0.481,0.41 v -2.1 z m 0.65,3.764 c 0,-0.555 0.12,-0.965 0.337,-1.23 0.216,-0.266 0.505,-0.386 0.818,-0.386 0.313,0 0.602,0.145 0.819,0.41 0.24,0.265 0.36,0.7 0.36,1.279 0,0.531 -0.12,0.941 -0.337,1.23 -0.24,0.266 -0.505,0.411 -0.818,0.411 -0.313,0 -0.577,-0.145 -0.818,-0.435 C 85.62,3.113 85.5,2.678 85.5,2.123 m 6.234,-3.764 v 5.936 h 0.674 V 3.74 c 0.144,0.217 0.337,0.386 0.53,0.507 0.192,0.096 0.433,0.144 0.722,0.144 0.361,0 0.674,-0.096 0.962,-0.265 0.265,-0.193 0.482,-0.458 0.626,-0.82 0.145,-0.338 0.217,-0.7 0.217,-1.11 0,-0.459 -0.072,-0.845 -0.241,-1.207 C 95.08,0.652 94.84,0.362 94.551,0.193 94.238,0 93.925,-0.096 93.587,-0.096 c -0.24,0 -0.457,0.048 -0.649,0.145 -0.193,0.12 -0.337,0.241 -0.457,0.41 v -2.1 z m 0.674,3.764 c 0,-0.555 0.096,-0.965 0.337,-1.23 0.216,-0.266 0.482,-0.386 0.794,-0.386 0.337,0 0.602,0.145 0.843,0.41 0.216,0.265 0.337,0.7 0.337,1.279 0,0.531 -0.097,0.941 -0.337,1.23 C 94.165,3.692 93.9,3.837 93.587,3.837 93.274,3.837 92.985,3.692 92.769,3.402 92.528,3.113 92.408,2.678 92.408,2.123 M 96.355,0 v 5.936 h 0.723 V 3.812 c 0.337,0.386 0.77,0.579 1.276,0.579 0.313,0 0.601,-0.048 0.818,-0.168 0.241,-0.145 0.409,-0.314 0.506,-0.531 0.12,-0.217 0.168,-0.555 0.168,-0.965 V 0 H 99.1 v 2.727 c 0,0.362 -0.073,0.627 -0.217,0.796 C 98.714,3.692 98.498,3.764 98.209,3.764 97.992,3.764 97.8,3.716 97.607,3.595 97.415,3.499 97.27,3.33 97.198,3.137 97.102,2.968 97.078,2.702 97.078,2.365 V 0 Z m 7.414,0 v 0.627 c -0.337,-0.482 -0.794,-0.723 -1.372,-0.723 -0.265,0 -0.481,0.048 -0.722,0.145 -0.216,0.096 -0.361,0.217 -0.481,0.361 -0.097,0.145 -0.168,0.338 -0.217,0.555 -0.024,0.145 -0.048,0.362 -0.048,0.676 v 2.654 h 0.722 V 1.906 c 0,-0.362 0.024,-0.627 0.048,-0.748 0.049,-0.193 0.145,-0.362 0.289,-0.458 0.144,-0.121 0.337,-0.169 0.554,-0.169 0.217,0 0.433,0.048 0.601,0.169 0.193,0.12 0.337,0.265 0.41,0.458 0.096,0.193 0.12,0.483 0.12,0.845 v 2.292 h 0.722 V 0 Z m -0.433,4.826 h -0.577 l -0.94,1.134 h 0.988 z M 107.837,0 v 5.936 h 0.746 V 3.812 c 0.337,0.386 0.746,0.579 1.277,0.579 0.313,0 0.601,-0.048 0.818,-0.168 0.241,-0.145 0.409,-0.314 0.505,-0.531 0.096,-0.217 0.169,-0.555 0.169,-0.965 V 0 h -0.746 v 2.727 c 0,0.362 -0.073,0.627 -0.241,0.796 -0.145,0.169 -0.361,0.241 -0.65,0.241 -0.217,0 -0.433,-0.048 -0.626,-0.169 C 108.92,3.499 108.776,3.33 108.704,3.137 108.607,2.968 108.583,2.702 108.583,2.365 V 0 Z m 5.079,2.147 c 0,-0.53 0.12,-0.94 0.362,-1.23 0.24,-0.265 0.529,-0.41 0.914,-0.41 0.385,0 0.674,0.145 0.89,0.41 0.242,0.29 0.362,0.724 0.362,1.255 0,0.53 -0.12,0.917 -0.362,1.206 -0.216,0.29 -0.529,0.41 -0.89,0.41 -0.385,0 -0.674,-0.12 -0.914,-0.41 -0.242,-0.289 -0.362,-0.7 -0.362,-1.231 m 3.37,1.424 v 0.844 h 0.795 V 3.74 c 0,-0.338 -0.049,-0.603 -0.169,-0.772 -0.12,-0.241 -0.361,-0.434 -0.722,-0.628 V 2.22 c 0,-1.013 -0.313,-1.689 -0.963,-2.051 -0.313,-0.169 -0.674,-0.265 -1.035,-0.265 -0.625,0 -1.107,0.193 -1.469,0.579 -0.36,0.41 -0.553,0.965 -0.553,1.664 0,0.797 0.217,1.4 0.674,1.786 0.361,0.314 0.819,0.458 1.348,0.458 0.578,0 1.059,-0.193 1.445,-0.579 0.289,-0.289 0.457,-0.675 0.529,-1.134 0.193,0.121 0.313,0.242 0.385,0.362 0.097,0.121 0.121,0.29 0.121,0.531 z m -2.551,-4.054 h 0.842 v -0.82 h -0.842 z m 4.139,-1.158 v 5.936 h 0.651 V 3.74 c 0.168,0.217 0.337,0.386 0.529,0.507 0.217,0.096 0.433,0.144 0.723,0.144 0.36,0 0.698,-0.096 0.962,-0.265 0.289,-0.193 0.506,-0.458 0.65,-0.82 0.145,-0.338 0.217,-0.7 0.217,-1.11 0,-0.459 -0.096,-0.845 -0.241,-1.207 -0.168,-0.337 -0.385,-0.627 -0.698,-0.796 -0.289,-0.193 -0.602,-0.289 -0.938,-0.289 -0.242,0 -0.458,0.048 -0.651,0.145 -0.192,0.12 -0.36,0.241 -0.481,0.41 v -2.1 z m 0.651,3.764 c 0,-0.555 0.12,-0.965 0.337,-1.23 0.216,-0.266 0.505,-0.386 0.818,-0.386 0.313,0 0.602,0.145 0.819,0.41 0.24,0.265 0.361,0.7 0.361,1.279 0,0.531 -0.121,0.941 -0.337,1.23 -0.241,0.266 -0.506,0.411 -0.819,0.411 -0.313,0 -0.577,-0.145 -0.818,-0.435 -0.241,-0.289 -0.361,-0.724 -0.361,-1.279"
             style="fill:#63251f;fill-opacity:1;fill-rule:nonzero;stroke:none"
             id="path946" />
        </g>
      </g>
    </g>
  </g>
</svg>
